<svg display="block" role="presentation" viewBox="0 0 32 32" xmlns="http://www.w3.org/2000/svg"><g d="M 0 0 L 24 0 L 24 24 L 0 24 Z M 12.654 19.795 C 12.654 20.324 12.517 20.846 12.253 21.32 C 12.024 21.729 11.89 22.175 11.858 22.632 L 11.782 23.727 L 11.706 22.632 C 11.674 22.175 11.539 21.73 11.311 21.32 C 11.047 20.846 10.909 20.325 10.909 19.795 L 10.909 4.205 C 10.91 3.671 11.049 3.146 11.311 2.68 C 11.538 2.277 11.673 1.828 11.706 1.367 L 11.782 0.272 L 11.858 1.367 C 11.891 1.828 12.026 2.277 12.253 2.68 C 12.517 3.153 12.654 3.675 12.654 4.205 Z M 7.889 4.243 C 8.153 4.717 8.291 5.239 8.291 5.768 L 8.291 18.231 C 8.291 18.761 8.153 19.283 7.889 19.756 C 7.663 20.159 7.528 20.608 7.495 21.069 L 7.418 22.163 L 7.342 21.068 C 7.309 20.607 7.174 20.159 6.947 19.756 C 6.685 19.29 6.547 18.765 6.546 18.231 L 6.546 5.768 C 6.546 5.239 6.683 4.717 6.947 4.243 C 7.176 3.834 7.31 3.388 7.342 2.931 L 7.418 1.836 L 7.495 2.931 C 7.527 3.388 7.661 3.834 7.889 4.243 Z M 6.109 16.668 C 6.109 17.197 5.971 17.719 5.707 18.192 C 5.481 18.595 5.346 19.044 5.313 19.505 L 5.236 20.6 L 5.16 19.505 C 5.128 19.048 4.994 18.602 4.765 18.192 C 4.501 17.719 4.364 17.197 4.364 16.667 L 4.364 7.332 C 4.365 6.798 4.503 6.273 4.765 5.807 C 4.992 5.404 5.127 4.956 5.16 4.495 L 5.236 3.4 L 5.313 4.495 C 5.346 4.956 5.481 5.404 5.707 5.807 C 5.972 6.28 6.109 6.803 6.109 7.333 Z M 3.525 8.934 C 3.79 9.408 3.927 9.93 3.927 10.459 L 3.927 13.54 C 3.927 14.07 3.79 14.592 3.525 15.065 C 3.299 15.468 3.164 15.917 3.131 16.378 L 3.055 17.473 L 2.978 16.378 C 2.945 15.917 2.81 15.468 2.584 15.065 C 2.322 14.599 2.183 14.074 2.182 13.54 L 2.182 10.46 C 2.182 9.93 2.319 9.408 2.584 8.934 C 2.812 8.525 2.946 8.079 2.978 7.622 L 3.055 6.527 L 3.131 7.622 C 3.163 8.079 3.297 8.525 3.525 8.934 Z M 0.402 10.498 C 0.628 10.095 0.763 9.647 0.796 9.186 L 0.873 8.091 L 0.949 9.186 C 0.982 9.647 1.117 10.095 1.344 10.498 C 1.602 10.957 1.74 11.474 1.745 12 C 1.741 12.522 1.604 13.035 1.344 13.502 C 1.115 13.911 0.981 14.357 0.949 14.814 L 0.873 15.909 L 0.796 14.814 C 0.764 14.357 0.63 13.911 0.402 13.502 C 0.141 13.035 0.004 12.521 0 12 C 0.004 11.478 0.142 10.964 0.402 10.498 Z M 10.07 2.68 C 10.335 3.153 10.473 3.675 10.473 4.205 L 10.473 19.795 C 10.473 20.325 10.335 20.846 10.071 21.32 C 9.842 21.73 9.708 22.175 9.676 22.632 L 9.6 23.727 L 9.524 22.632 C 9.491 22.171 9.356 21.723 9.129 21.32 C 8.867 20.854 8.728 20.329 8.727 19.795 L 8.727 4.205 C 8.727 3.675 8.865 3.153 9.129 2.68 C 9.358 2.27 9.492 1.824 9.524 1.367 L 9.6 0.272 L 9.676 1.367 C 9.708 1.824 9.842 2.27 10.071 2.68 Z M 14.434 2.68 C 14.699 3.153 14.836 3.675 14.836 4.205 L 14.836 19.795 C 14.836 20.325 14.699 20.846 14.435 21.32 C 14.206 21.73 14.072 22.175 14.04 22.632 L 13.964 23.727 L 13.887 22.632 C 13.854 22.171 13.719 21.723 13.493 21.32 C 13.231 20.854 13.092 20.329 13.091 19.795 L 13.091 4.205 C 13.091 3.675 13.228 3.153 13.493 2.68 C 13.719 2.277 13.854 1.828 13.887 1.367 L 13.964 0.272 L 14.04 1.367 C 14.072 1.824 14.206 2.27 14.435 2.68 Z M 17.018 18.231 C 17.018 18.761 16.881 19.283 16.616 19.756 C 16.39 20.159 16.255 20.607 16.222 21.068 L 16.145 22.163 L 16.069 21.069 C 16.037 20.612 15.903 20.166 15.675 19.756 C 15.41 19.283 15.273 18.761 15.273 18.231 L 15.273 5.768 C 15.274 5.234 15.413 4.709 15.675 4.243 C 15.901 3.84 16.036 3.392 16.069 2.931 L 16.145 1.836 L 16.222 2.931 C 16.255 3.392 16.39 3.84 16.616 4.243 C 16.881 4.717 17.018 5.239 17.018 5.768 Z M 18.798 5.807 C 19.062 6.28 19.2 6.803 19.2 7.332 L 19.2 16.667 C 19.2 17.197 19.062 17.719 18.798 18.192 C 18.572 18.595 18.437 19.044 18.404 19.505 L 18.327 20.6 L 18.251 19.505 C 18.218 19.044 18.083 18.595 17.856 18.192 C 17.594 17.727 17.456 17.202 17.454 16.668 L 17.454 7.332 C 17.454 6.802 17.592 6.28 17.856 5.807 C 18.085 5.397 18.219 4.951 18.251 4.495 L 18.327 3.4 L 18.404 4.495 C 18.436 4.951 18.57 5.398 18.798 5.807 Z M 21.382 13.54 C 21.382 14.07 21.244 14.592 20.98 15.065 C 20.751 15.474 20.617 15.921 20.585 16.378 L 20.509 17.473 L 20.433 16.378 C 20.401 15.921 20.267 15.475 20.038 15.065 C 19.774 14.592 19.636 14.07 19.636 13.54 L 19.636 10.459 C 19.637 9.925 19.776 9.4 20.038 8.934 C 20.265 8.531 20.4 8.083 20.433 7.622 L 20.509 6.527 L 20.585 7.622 C 20.618 8.083 20.753 8.531 20.98 8.934 C 21.244 9.408 21.382 9.929 21.382 10.459 Z M 21.818 12 C 21.818 12 21.818 12 21.818 12.001 C 21.818 12.001 21.818 12.001 21.818 12.001 Z M 21.818 12.001 C 21.818 12.001 21.818 12.001 21.818 12.001 Z M 21.818 12.001 C 21.822 11.479 21.96 10.965 22.22 10.499 C 22.447 10.096 22.582 9.648 22.615 9.187 L 22.691 8.092 L 22.767 9.187 C 22.8 9.648 22.935 10.096 23.162 10.499 C 23.42 10.958 23.559 11.474 23.564 12.001 C 23.56 12.523 23.422 13.036 23.162 13.503 C 22.933 13.912 22.799 14.358 22.767 14.815 L 22.691 15.91 L 22.615 14.815 C 22.583 14.358 22.449 13.912 22.22 13.503 C 21.96 13.036 21.822 12.522 21.818 12.001 Z" fill="transparent" height="24px" id="jYVT_NXB8" transform="translate(4 4)" width="24px"><path d="M 0 0 L 24 0 L 24 24 L 0 24 Z" fill="transparent" height="24px" id="yDBNM6rU9" width="24px"/><path d="M 12.654 19.523 C 12.654 20.052 12.517 20.574 12.253 21.048 C 12.024 21.457 11.89 21.903 11.858 22.36 L 11.782 23.455 L 11.706 22.36 C 11.674 21.903 11.539 21.458 11.311 21.048 C 11.047 20.574 10.909 20.053 10.909 19.523 L 10.909 3.933 C 10.91 3.399 11.049 2.874 11.311 2.408 C 11.538 2.005 11.673 1.556 11.706 1.095 L 11.782 0 L 11.858 1.095 C 11.891 1.556 12.026 2.005 12.253 2.408 C 12.517 2.881 12.654 3.403 12.654 3.933 Z M 7.889 3.971 C 8.153 4.445 8.291 4.967 8.291 5.496 L 8.291 17.959 C 8.291 18.489 8.153 19.011 7.889 19.484 C 7.663 19.887 7.528 20.336 7.495 20.797 L 7.418 21.891 L 7.342 20.796 C 7.309 20.335 7.174 19.887 6.947 19.484 C 6.685 19.018 6.547 18.493 6.546 17.959 L 6.546 5.496 C 6.546 4.967 6.683 4.445 6.947 3.971 C 7.176 3.562 7.31 3.116 7.342 2.659 L 7.418 1.564 L 7.495 2.659 C 7.527 3.116 7.661 3.562 7.889 3.971 Z M 6.109 16.396 C 6.109 16.925 5.971 17.447 5.707 17.92 C 5.481 18.323 5.346 18.772 5.313 19.233 L 5.236 20.328 L 5.16 19.233 C 5.128 18.776 4.994 18.33 4.765 17.92 C 4.501 17.447 4.364 16.925 4.364 16.395 L 4.364 7.06 C 4.365 6.526 4.503 6.001 4.765 5.535 C 4.992 5.132 5.127 4.684 5.16 4.223 L 5.236 3.128 L 5.313 4.223 C 5.346 4.684 5.481 5.132 5.707 5.535 C 5.972 6.008 6.109 6.531 6.109 7.061 Z M 3.525 8.662 C 3.79 9.136 3.927 9.658 3.927 10.187 L 3.927 13.268 C 3.927 13.798 3.79 14.32 3.525 14.793 C 3.299 15.196 3.164 15.645 3.131 16.106 L 3.055 17.201 L 2.978 16.106 C 2.945 15.645 2.81 15.196 2.584 14.793 C 2.322 14.327 2.183 13.802 2.182 13.268 L 2.182 10.188 C 2.182 9.658 2.319 9.136 2.584 8.662 C 2.812 8.253 2.946 7.807 2.978 7.35 L 3.055 6.255 L 3.131 7.35 C 3.163 7.807 3.297 8.253 3.525 8.662 Z M 0.402 10.226 C 0.628 9.823 0.763 9.375 0.796 8.914 L 0.873 7.819 L 0.949 8.914 C 0.982 9.375 1.117 9.823 1.344 10.226 C 1.602 10.685 1.74 11.202 1.745 11.728 C 1.741 12.25 1.604 12.763 1.344 13.23 C 1.115 13.639 0.981 14.085 0.949 14.542 L 0.873 15.637 L 0.796 14.542 C 0.764 14.085 0.63 13.639 0.402 13.23 C 0.141 12.763 0.004 12.249 0 11.728 C 0.004 11.206 0.142 10.692 0.402 10.226 Z M 10.07 2.408 C 10.335 2.881 10.473 3.403 10.473 3.933 L 10.473 19.523 C 10.473 20.053 10.335 20.574 10.071 21.048 C 9.842 21.458 9.708 21.903 9.676 22.36 L 9.6 23.455 L 9.524 22.36 C 9.491 21.899 9.356 21.451 9.129 21.048 C 8.867 20.582 8.728 20.057 8.727 19.523 L 8.727 3.933 C 8.727 3.403 8.865 2.881 9.129 2.408 C 9.358 1.998 9.492 1.552 9.524 1.095 L 9.6 0 L 9.676 1.095 C 9.708 1.552 9.842 1.998 10.071 2.408 Z M 14.434 2.408 C 14.699 2.881 14.836 3.403 14.836 3.933 L 14.836 19.523 C 14.836 20.053 14.699 20.574 14.435 21.048 C 14.206 21.458 14.072 21.903 14.04 22.36 L 13.964 23.455 L 13.887 22.36 C 13.854 21.899 13.719 21.451 13.493 21.048 C 13.231 20.582 13.092 20.057 13.091 19.523 L 13.091 3.933 C 13.091 3.403 13.228 2.881 13.493 2.408 C 13.719 2.005 13.854 1.556 13.887 1.095 L 13.964 0 L 14.04 1.095 C 14.072 1.552 14.206 1.998 14.435 2.408 Z M 17.018 17.959 C 17.018 18.489 16.881 19.011 16.616 19.484 C 16.39 19.887 16.255 20.335 16.222 20.796 L 16.145 21.891 L 16.069 20.797 C 16.037 20.34 15.903 19.894 15.675 19.484 C 15.41 19.011 15.273 18.489 15.273 17.959 L 15.273 5.496 C 15.274 4.962 15.413 4.437 15.675 3.971 C 15.901 3.568 16.036 3.12 16.069 2.659 L 16.145 1.564 L 16.222 2.659 C 16.255 3.12 16.39 3.568 16.616 3.971 C 16.881 4.445 17.018 4.967 17.018 5.496 Z M 18.798 5.535 C 19.062 6.008 19.2 6.531 19.2 7.06 L 19.2 16.395 C 19.2 16.925 19.062 17.447 18.798 17.92 C 18.572 18.323 18.437 18.772 18.404 19.233 L 18.327 20.328 L 18.251 19.233 C 18.218 18.772 18.083 18.323 17.856 17.92 C 17.594 17.455 17.456 16.93 17.454 16.396 L 17.454 7.06 C 17.454 6.53 17.592 6.008 17.856 5.535 C 18.085 5.125 18.219 4.679 18.251 4.223 L 18.327 3.128 L 18.404 4.223 C 18.436 4.679 18.57 5.126 18.798 5.535 Z M 21.382 13.268 C 21.382 13.798 21.244 14.32 20.98 14.793 C 20.751 15.202 20.617 15.649 20.585 16.106 L 20.509 17.201 L 20.433 16.106 C 20.401 15.649 20.267 15.203 20.038 14.793 C 19.774 14.32 19.636 13.798 19.636 13.268 L 19.636 10.187 C 19.637 9.653 19.776 9.128 20.038 8.662 C 20.265 8.259 20.4 7.811 20.433 7.35 L 20.509 6.255 L 20.585 7.35 C 20.618 7.811 20.753 8.259 20.98 8.662 C 21.244 9.136 21.382 9.657 21.382 10.187 Z M 21.818 11.728 C 21.818 11.728 21.818 11.728 21.818 11.729 C 21.818 11.729 21.818 11.729 21.818 11.729 Z M 21.818 11.729 C 21.818 11.729 21.818 11.729 21.818 11.729 Z M 21.818 11.729 C 21.822 11.207 21.96 10.693 22.22 10.227 C 22.447 9.824 22.582 9.376 22.615 8.915 L 22.691 7.82 L 22.767 8.915 C 22.8 9.376 22.935 9.824 23.162 10.227 C 23.42 10.686 23.559 11.202 23.564 11.729 C 23.56 12.251 23.422 12.764 23.162 13.231 C 22.933 13.64 22.799 14.086 22.767 14.543 L 22.691 15.638 L 22.615 14.543 C 22.583 14.086 22.449 13.64 22.22 13.231 C 21.96 12.764 21.822 12.25 21.818 11.729 Z" fill="rgb(255, 255, 255)" height="23.455000000000002px" id="Tf7dzF3Vd" transform="translate(0 0.272)" width="23.564000793457033px"/></g></svg>